<?xml version="1.0" encoding="UTF-8"?>
<!DOCTYPE svg PUBLIC "-//W3C//DTD SVG 1.1//EN" "http://www.w3.org/Graphics/SVG/1.1/DTD/svg11.dtd">
<svg xmlns="http://www.w3.org/2000/svg" version="1.1" width="542px" height="460px" style="shape-rendering:geometricPrecision; text-rendering:geometricPrecision; image-rendering:optimizeQuality; fill-rule:evenodd; clip-rule:evenodd" xmlns:xlink="http://www.w3.org/1999/xlink">
<g><path style="opacity:0.004" fill="#fefffe" d="M 462.5,0.5 C 463.833,1.16667 463.833,1.16667 462.5,0.5 Z"/></g>
<g><path style="opacity:0.004" fill="#fefffe" d="M 296.5,1.5 C 297.833,2.16667 297.833,2.16667 296.5,1.5 Z"/></g>
<g><path style="opacity:0.004" fill="#fefffe" d="M 64.5,9.5 C 65.8333,10.1667 65.8333,10.1667 64.5,9.5 Z"/></g>
<g><path style="opacity:0.004" fill="#fefffe" d="M 33.5,10.5 C 34.8333,11.1667 34.8333,11.1667 33.5,10.5 Z"/></g>
<g><path style="opacity:0.004" fill="#fefffe" d="M 523.5,19.5 C 524.833,20.1667 524.833,20.1667 523.5,19.5 Z"/></g>
<g><path style="opacity:0.004" fill="#fefffe" d="M 517.5,20.5 C 518.833,21.1667 518.833,21.1667 517.5,20.5 Z"/></g>
<g><path style="opacity:0.004" fill="#fefffe" d="M 67.5,21.5 C 68.8333,22.1667 68.8333,22.1667 67.5,21.5 Z"/></g>
<g><path style="opacity:0.004" fill="#fefffe" d="M 2.5,33.5 C 3.83333,34.1667 3.83333,34.1667 2.5,33.5 Z"/></g>
<g><path style="opacity:0.004" fill="#fefffe" d="M 505.5,40.5 C 506.833,41.1667 506.833,41.1667 505.5,40.5 Z"/></g>
<g><path style="opacity:0.004" fill="#fefffe" d="M 25.5,42.5 C 26.8333,43.1667 26.8333,43.1667 25.5,42.5 Z"/></g>
<g><path style="opacity:0.004" fill="#fefffe" d="M 135.5,43.5 C 136.833,44.1667 136.833,44.1667 135.5,43.5 Z"/></g>
<g><path style="opacity:0.004" fill="#fefffe" d="M 170.5,50.5 C 171.833,51.1667 171.833,51.1667 170.5,50.5 Z"/></g>
<g><path style="opacity:0.004" fill="#fefffe" d="M 26.5,53.5 C 27.8333,54.1667 27.8333,54.1667 26.5,53.5 Z"/></g>
<g><path style="opacity:0.004" fill="#fefffe" d="M 330.5,55.5 C 331.833,56.1667 331.833,56.1667 330.5,55.5 Z"/></g>
<g><path style="opacity:0.004" fill="#fefffe" d="M 412.5,59.5 C 413.833,60.1667 413.833,60.1667 412.5,59.5 Z"/></g>
<g><path style="opacity:1" fill="#464545" d="M 319.5,69.5 C 322.338,71.3059 322.005,72.3059 318.5,72.5C 298.457,67.9084 278.123,66.2417 257.5,67.5C 254.43,67.3677 251.43,67.701 248.5,68.5C 246.847,68.3404 245.514,67.6737 244.5,66.5C 261.348,63.5412 278.348,62.7079 295.5,64C 303.731,65.4265 311.731,67.2598 319.5,69.5 Z"/></g>
<g><path style="opacity:0.306" fill="#ababab" d="M 257.5,67.5 C 254.689,68.475 251.689,69.1417 248.5,69.5C 248.5,69.1667 248.5,68.8333 248.5,68.5C 251.43,67.701 254.43,67.3677 257.5,67.5 Z"/></g>
<g><path style="opacity:0.004" fill="#fefffe" d="M 407.5,67.5 C 408.833,68.1667 408.833,68.1667 407.5,67.5 Z"/></g>
<g><path style="opacity:0.906" fill="#4a4949" d="M 244.5,66.5 C 245.514,67.6737 246.847,68.3404 248.5,68.5C 248.5,68.8333 248.5,69.1667 248.5,69.5C 237.602,71.6884 226.935,74.6884 216.5,78.5C 216.189,77.5222 215.522,76.8555 214.5,76.5C 213.264,77.2458 211.93,77.5792 210.5,77.5C 221.122,72.0033 232.455,68.3366 244.5,66.5 Z"/></g>
<g><path style="opacity:0.004" fill="#fefffe" d="M 417.5,70.5 C 418.833,71.1667 418.833,71.1667 417.5,70.5 Z"/></g>
<g><path style="opacity:0.984" fill="#808080" d="M 319.5,69.5 C 322.067,69.7215 324.401,70.3882 326.5,71.5C 322.75,71.5038 322.083,72.5038 324.5,74.5C 322.214,74.405 320.214,73.7384 318.5,72.5C 322.005,72.3059 322.338,71.3059 319.5,69.5 Z"/></g>
<g><path style="opacity:0.773" fill="#383637" d="M 326.5,71.5 C 328.5,72.1667 330.5,72.8333 332.5,73.5C 334.279,74.6697 335.279,76.3364 335.5,78.5C 331.766,77.3178 328.1,75.9845 324.5,74.5C 322.083,72.5038 322.75,71.5038 326.5,71.5 Z"/></g>
<g><path style="opacity:0.855" fill="#282727" d="M 216.5,78.5 C 215.791,79.404 214.791,79.7373 213.5,79.5C 211.847,79.6596 210.514,80.3263 209.5,81.5C 207.519,80.8946 207.185,79.8946 208.5,78.5C 209.167,78.1667 209.833,77.8333 210.5,77.5C 211.93,77.5792 213.264,77.2458 214.5,76.5C 215.522,76.8555 216.189,77.5222 216.5,78.5 Z"/></g>
<g><path style="opacity:0.937" fill="#727171" d="M 208.5,78.5 C 207.185,79.8946 207.519,80.8946 209.5,81.5C 209.027,82.9063 208.027,83.573 206.5,83.5C 207.815,82.1054 207.481,81.1054 205.5,80.5C 205.973,79.0937 206.973,78.427 208.5,78.5 Z"/></g>
<g><path style="opacity:0.078" fill="#bababa" d="M 213.5,79.5 C 212.713,81.1042 211.38,81.7709 209.5,81.5C 210.514,80.3263 211.847,79.6596 213.5,79.5 Z"/></g>
<g><path style="opacity:0.957" fill="#211f1f" d="M 204.5,80.5 C 204.833,80.5 205.167,80.5 205.5,80.5C 207.481,81.1054 207.815,82.1054 206.5,83.5C 206.167,83.5 205.833,83.5 205.5,83.5C 203.204,83.1959 202.871,82.1959 204.5,80.5 Z"/></g>
<g><path style="opacity:0.976" fill="#7b7a7a" d="M 204.5,80.5 C 202.871,82.1959 203.204,83.1959 205.5,83.5C 204.71,84.4013 203.71,85.0679 202.5,85.5C 202.715,83.8212 202.048,82.8212 200.5,82.5C 201.514,81.3263 202.847,80.6596 204.5,80.5 Z"/></g>
<g><path style="opacity:0.176" fill="#b9b7b8" d="M 200.5,82.5 C 199.341,84.2503 197.674,85.2503 195.5,85.5C 196.659,83.7497 198.326,82.7497 200.5,82.5 Z"/></g>
<g><path style="opacity:0.004" fill="#fefffe" d="M 271.5,87.5 C 272.833,88.1667 272.833,88.1667 271.5,87.5 Z"/></g>
<g><path style="opacity:0.004" fill="#fefffe" d="M 209.5,88.5 C 210.833,89.1667 210.833,89.1667 209.5,88.5 Z"/></g>
<g><path style="opacity:0.858" fill="#4e4c4d" d="M 332.5,73.5 C 357.555,82.9776 378.555,97.9776 395.5,118.5C 395.833,119.5 396.5,120.167 397.5,120.5C 413.146,138.459 423.48,159.126 428.5,182.5C 427.842,181.602 427.176,180.602 426.5,179.5C 425.702,179.957 425.369,180.624 425.5,181.5C 411.058,133.642 381.058,99.3086 335.5,78.5C 335.279,76.3364 334.279,74.6697 332.5,73.5 Z"/></g>
<g><path style="opacity:0.071" fill="#c4c4c4" d="M 338.5,93.5 C 340.074,95.1016 340.741,97.1016 340.5,99.5C 339.262,97.7857 338.595,95.7857 338.5,93.5 Z"/></g>
<g><path style="opacity:0.043" fill="#c5c3c3" d="M 334.5,95.5 C 334.405,97.7857 333.738,99.7857 332.5,101.5C 332.259,99.1016 332.926,97.1016 334.5,95.5 Z"/></g>
<g><path style="opacity:0.004" fill="#fefffe" d="M 491.5,103.5 C 492.833,104.167 492.833,104.167 491.5,103.5 Z"/></g>
<g><path style="opacity:0.141" fill="#b4b2b3" d="M 332.5,104.5 C 332.598,106.553 331.931,108.22 330.5,109.5C 330.402,107.447 331.069,105.78 332.5,104.5 Z"/></g>
<g><path style="opacity:0.004" fill="#fefffe" d="M 119.5,112.5 C 120.833,113.167 120.833,113.167 119.5,112.5 Z"/></g>
<g><path style="opacity:1" fill="#2b2324" d="M 338.5,93.5 C 338.595,95.7857 339.262,97.7857 340.5,99.5C 341.756,109.161 341.756,118.828 340.5,128.5C 340.167,128.5 339.833,128.5 339.5,128.5C 338.814,129.848 337.814,131.015 336.5,132C 333.805,132.254 331.305,132.421 329,132.5C 327.019,130.641 326.019,128.308 326,125.5C 325.617,126.056 325.117,126.389 324.5,126.5C 326.505,120.817 328.505,115.151 330.5,109.5C 331.931,108.22 332.598,106.553 332.5,104.5C 332.5,103.5 332.5,102.5 332.5,101.5C 333.738,99.7857 334.405,97.7857 334.5,95.5C 334.232,92.8806 334.565,90.3806 335.5,88C 336.332,87.3123 336.998,87.479 337.5,88.5C 338.309,90.0709 338.643,91.7376 338.5,93.5 Z"/></g>
<g><path style="opacity:0.004" fill="#fefffe" d="M 324.5,118.5 C 325.833,119.167 325.833,119.167 324.5,118.5 Z"/></g>
<g><path style="opacity:0.004" fill="#dedede" d="M 395.5,118.5 C 396.833,118.5 397.5,119.167 397.5,120.5C 396.5,120.167 395.833,119.5 395.5,118.5 Z"/></g>
<g><path style="opacity:0.004" fill="#fefffe" d="M 171.5,127.5 C 172.833,128.167 172.833,128.167 171.5,127.5 Z"/></g>
<g><path style="opacity:0.69" fill="#4c4a4b" d="M 200.5,82.5 C 202.048,82.8212 202.715,83.8212 202.5,85.5C 165.124,106.897 140.124,138.231 127.5,179.5C 126.076,181.515 125.41,183.848 125.5,186.5C 124.974,190.35 124.307,194.184 123.5,198C 124.349,199.978 124.016,201.812 122.5,203.5C 122.598,200.752 121.598,200.086 119.5,201.5C 120.944,189.058 123.944,177.058 128.5,165.5C 129.931,164.22 130.598,162.553 130.5,160.5C 131.912,156.679 133.578,153.013 135.5,149.5C 136.338,149.158 136.672,148.492 136.5,147.5C 150.003,120.996 169.67,100.329 195.5,85.5C 197.674,85.2503 199.341,84.2503 200.5,82.5 Z"/></g>
<g><path style="opacity:0.027" fill="#9c999b" d="M 313.5,134.5 C 313.631,133.761 313.464,133.094 313,132.5C 312.329,133.252 311.496,133.586 310.5,133.5C 311.755,131.359 313.422,130.693 315.5,131.5C 315.058,132.739 314.391,133.739 313.5,134.5 Z"/></g>
<g><path style="opacity:0.004" fill="#fefffe" d="M 498.5,131.5 C 499.833,132.167 499.833,132.167 498.5,131.5 Z"/></g>
<g><path style="opacity:0.004" fill="#fefffe" d="M 0.5,132.5 C 1.83333,133.167 1.83333,133.167 0.5,132.5 Z"/></g>
<g><path style="opacity:0.259" fill="#b2adad" d="M 339.5,128.5 C 339.833,128.5 340.167,128.5 340.5,128.5C 340.706,131.495 340.04,134.162 338.5,136.5C 338.833,133.833 339.167,131.167 339.5,128.5 Z"/></g>
<g><path style="opacity:0.078" fill="#d3d3d3" d="M 310.5,133.5 C 310.167,134.5 309.5,135.167 308.5,135.5C 308.5,134.167 309.167,133.5 310.5,133.5 Z"/></g>
<g><path style="opacity:0.982" fill="#474445" d="M 313.5,134.5 C 313.062,136.126 312.728,137.793 312.5,139.5C 312.64,141.03 313.307,142.03 314.5,142.5C 313.791,143.404 312.791,143.737 311.5,143.5C 311.808,141.076 311.474,138.743 310.5,136.5C 309.459,138.991 308.626,138.991 308,136.5C 307.617,137.056 307.117,137.389 306.5,137.5C 306.5,136.167 307.167,135.5 308.5,135.5C 309.5,135.167 310.167,134.5 310.5,133.5C 311.496,133.586 312.329,133.252 313,132.5C 313.464,133.094 313.631,133.761 313.5,134.5 Z"/></g>
<g><path style="opacity:0.004" fill="#fefffe" d="M 273.5,136.5 C 274.833,137.167 274.833,137.167 273.5,136.5 Z"/></g>
<g><path style="opacity:0.949" fill="#585759" d="M 306.5,137.5 C 306.657,138.873 306.49,140.207 306,141.5C 305.667,141.167 305.333,140.833 305,140.5C 304.584,142.55 303.417,143.884 301.5,144.5C 302.433,141.63 304.1,139.296 306.5,137.5 Z"/></g>
<g><path style="opacity:1" fill="#252122" d="M 314.5,142.5 C 315.5,142.167 316.167,141.5 316.5,140.5C 318.379,140.393 318.712,140.893 317.5,142C 318.308,142.308 318.975,142.808 319.5,143.5C 318.469,144.7 317.635,146.034 317,147.5C 316.361,144.772 315.194,144.272 313.5,146C 315.891,146.691 315.891,147.691 313.5,149C 316.238,150.896 319.238,152.229 322.5,153C 320.801,155.238 319.468,157.738 318.5,160.5C 317.914,160.291 317.414,159.957 317,159.5C 316.5,160.667 315.667,161.5 314.5,162C 315.187,164.232 315.521,166.398 315.5,168.5C 315.071,171.147 313.738,173.147 311.5,174.5C 312.833,175.167 314.167,175.833 315.5,176.5C 314.828,178.53 314.162,180.53 313.5,182.5C 312.639,185.04 310.972,187.04 308.5,188.5C 306.858,185.197 304.858,182.197 302.5,179.5C 302.02,181.851 301.686,184.185 301.5,186.5C 298.843,187.259 296.177,187.926 293.5,188.5C 292.833,188.167 292.167,187.833 291.5,187.5C 290.378,188.63 289.044,189.297 287.5,189.5C 287.443,188.391 287.11,187.391 286.5,186.5C 285.332,179.16 285.498,171.827 287,164.5C 287.36,162.579 288.194,160.912 289.5,159.5C 290.099,164.921 292.265,169.588 296,173.5C 295.337,165.303 296.17,157.303 298.5,149.5C 299.906,149.027 300.573,148.027 300.5,146.5C 300.833,145.833 301.167,145.167 301.5,144.5C 303.417,143.884 304.584,142.55 305,140.5C 305.333,140.833 305.667,141.167 306,141.5C 306.49,140.207 306.657,138.873 306.5,137.5C 307.117,137.389 307.617,137.056 308,136.5C 308.626,138.991 309.459,138.991 310.5,136.5C 311.474,138.743 311.808,141.076 311.5,143.5C 312.791,143.737 313.791,143.404 314.5,142.5 Z"/></g>
<g><path style="opacity:0.18" fill="#bcbbbc" d="M 316.5,139.5 C 316.5,139.833 316.5,140.167 316.5,140.5C 316.167,141.5 315.5,142.167 314.5,142.5C 314.427,140.973 315.094,139.973 316.5,139.5 Z"/></g>
<g><path style="opacity:1" fill="#262223" d="M 339.5,128.5 C 339.167,131.167 338.833,133.833 338.5,136.5C 336.962,143.655 334.962,150.655 332.5,157.5C 331.833,157.5 331.5,157.833 331.5,158.5C 330.475,158.897 330.308,159.563 331,160.5C 332.518,159.837 333.685,158.837 334.5,157.5C 339.229,152.267 343.396,146.601 347,140.5C 347.479,148.231 345.979,155.565 342.5,162.5C 340.86,163.137 339.194,164.304 337.5,166C 338.973,166.71 339.64,167.876 339.5,169.5C 338.766,170.708 338.433,172.041 338.5,173.5C 337.833,173.5 337.5,173.833 337.5,174.5C 336.662,174.842 336.328,175.508 336.5,176.5C 335.833,176.5 335.5,176.833 335.5,177.5C 334.312,178.684 333.145,178.684 332,177.5C 332.497,179.198 332.33,180.865 331.5,182.5C 332.631,183.604 333.465,183.271 334,181.5C 335.911,184.294 336.911,187.294 337,190.5C 335.829,189.107 334.329,188.273 332.5,188C 328.311,187.188 324.311,187.355 320.5,188.5C 317.183,194.124 315.683,193.458 316,186.5C 315.333,183.833 314.667,183.833 314,186.5C 313.51,185.207 313.343,183.873 313.5,182.5C 314.162,180.53 314.828,178.53 315.5,176.5C 314.167,175.833 312.833,175.167 311.5,174.5C 313.738,173.147 315.071,171.147 315.5,168.5C 315.521,166.398 315.187,164.232 314.5,162C 315.667,161.5 316.5,160.667 317,159.5C 317.414,159.957 317.914,160.291 318.5,160.5C 319.468,157.738 320.801,155.238 322.5,153C 319.238,152.229 316.238,150.896 313.5,149C 315.891,147.691 315.891,146.691 313.5,146C 315.194,144.272 316.361,144.772 317,147.5C 317.635,146.034 318.469,144.7 319.5,143.5C 318.975,142.808 318.308,142.308 317.5,142C 318.712,140.893 318.379,140.393 316.5,140.5C 316.5,140.167 316.5,139.833 316.5,139.5C 318.93,134.963 321.597,130.63 324.5,126.5C 325.117,126.389 325.617,126.056 326,125.5C 326.019,128.308 327.019,130.641 329,132.5C 331.305,132.421 333.805,132.254 336.5,132C 337.814,131.015 338.814,129.848 339.5,128.5 Z"/></g>
<g><path style="opacity:0.004" fill="#fefffe" d="M 452.5,145.5 C 453.833,146.167 453.833,146.167 452.5,145.5 Z"/></g>
<g><path style="opacity:0.004" fill="#fefffe" d="M 407.5,146.5 C 408.833,147.167 408.833,147.167 407.5,146.5 Z"/></g>
<g><path style="opacity:0.008" fill="#e9e9e9" d="M 136.5,147.5 C 136.672,148.492 136.338,149.158 135.5,149.5C 133.969,148.075 134.302,147.409 136.5,147.5 Z"/></g>
<g><path style="opacity:0.039" fill="#d1d0d1" d="M 300.5,146.5 C 300.573,148.027 299.906,149.027 298.5,149.5C 298.427,147.973 299.094,146.973 300.5,146.5 Z"/></g>
<g><path style="opacity:0.278" fill="#a6a3a3" d="M 332.5,157.5 C 333.167,157.5 333.833,157.5 334.5,157.5C 333.685,158.837 332.518,159.837 331,160.5C 330.308,159.563 330.475,158.897 331.5,158.5C 332.167,158.5 332.5,158.167 332.5,157.5 Z"/></g>
<g><path style="opacity:0.086" fill="#c5c4c4" d="M 130.5,160.5 C 130.598,162.553 129.931,164.22 128.5,165.5C 128.402,163.447 129.069,161.78 130.5,160.5 Z"/></g>
<g><path style="opacity:0.959" fill="#5f5b5c" d="M 342.5,162.5 C 342.5,163.5 342.5,164.5 342.5,165.5C 340.896,166.287 340.229,167.62 340.5,169.5C 340.167,169.5 339.833,169.5 339.5,169.5C 339.64,167.876 338.973,166.71 337.5,166C 339.194,164.304 340.86,163.137 342.5,162.5 Z"/></g>
<g><path style="opacity:0.49" fill="#706d6e" d="M 342.5,165.5 C 343.586,165.62 344.253,166.287 344.5,167.5C 344.071,170.029 343.404,172.362 342.5,174.5C 342.196,172.204 341.196,171.871 339.5,173.5C 339.833,172.167 340.167,170.833 340.5,169.5C 342.104,168.713 342.771,167.38 342.5,165.5 Z"/></g>
<g><path style="opacity:0.004" fill="#fefffe" d="M 204.5,170.5 C 205.833,171.167 205.833,171.167 204.5,170.5 Z"/></g>
<g><path style="opacity:0.004" fill="#fefffe" d="M 193.5,172.5 C 194.833,173.167 194.833,173.167 193.5,172.5 Z"/></g>
<g><path style="opacity:0.992" fill="#1a1819" d="M 342.5,174.5 C 342.5,175.167 342.5,175.833 342.5,176.5C 341.48,178.934 340.147,178.934 338.5,176.5C 339.127,175.583 339.461,174.583 339.5,173.5C 341.196,171.871 342.196,172.204 342.5,174.5 Z"/></g>
<g><path style="opacity:0.004" fill="#fefffe" d="M 478.5,179.5 C 479.833,180.167 479.833,180.167 478.5,179.5 Z"/></g>
<g><path style="opacity:0.086" fill="#bbb8ba" d="M 127.5,179.5 C 127.59,182.152 126.924,184.485 125.5,186.5C 125.41,183.848 126.076,181.515 127.5,179.5 Z"/></g>
<g><path style="opacity:0.369" fill="#afa0a2" d="M 284.5,187.5 C 284.842,186.662 285.508,186.328 286.5,186.5C 287.11,187.391 287.443,188.391 287.5,189.5C 287.5,189.833 287.5,190.167 287.5,190.5C 286.833,190.5 286.5,190.833 286.5,191.5C 285.833,190.167 285.167,188.833 284.5,187.5 Z"/></g>
<g><path style="opacity:1" fill="#2e1e20" d="M 313.5,182.5 C 313.343,183.873 313.51,185.207 314,186.5C 314.667,183.833 315.333,183.833 316,186.5C 315.683,193.458 317.183,194.124 320.5,188.5C 323.65,188.7 326.983,189.366 330.5,190.5C 329.675,191.386 328.675,191.719 327.5,191.5C 327.261,193.467 327.594,195.301 328.5,197C 326.121,198.419 323.621,199.586 321,200.5C 320.055,200.095 319.388,199.428 319,198.5C 317.951,199.517 316.784,199.684 315.5,199C 314.771,196.942 313.771,195.109 312.5,193.5C 312.167,190.833 311.833,190.833 311.5,193.5C 310.434,195.701 309.767,198.035 309.5,200.5C 309.5,200.833 309.5,201.167 309.5,201.5C 309.068,202.71 308.401,203.71 307.5,204.5C 306.793,202.866 305.627,201.532 304,200.5C 303,201.833 302,203.167 301,204.5C 300.667,203.833 300.333,203.167 300,202.5C 299.667,204.167 299.333,205.833 299,207.5C 296.979,205.395 294.979,203.395 293,201.5C 290.703,203.457 288.37,205.457 286,207.5C 285.349,205.765 285.515,204.098 286.5,202.5C 285.123,200.435 283.79,198.435 282.5,196.5C 282.405,193.308 283.071,190.308 284.5,187.5C 285.167,188.833 285.833,190.167 286.5,191.5C 286.263,192.791 286.596,193.791 287.5,194.5C 288.167,194.5 288.5,194.167 288.5,193.5C 288.737,192.209 288.404,191.209 287.5,190.5C 287.5,190.167 287.5,189.833 287.5,189.5C 289.044,189.297 290.378,188.63 291.5,187.5C 292.167,187.833 292.833,188.167 293.5,188.5C 296.177,187.926 298.843,187.259 301.5,186.5C 301.686,184.185 302.02,181.851 302.5,179.5C 304.858,182.197 306.858,185.197 308.5,188.5C 310.972,187.04 312.639,185.04 313.5,182.5 Z"/></g>
<g><path style="opacity:0.149" fill="#bbacad" d="M 287.5,190.5 C 288.404,191.209 288.737,192.209 288.5,193.5C 287.833,193.5 287.5,193.833 287.5,194.5C 286.596,193.791 286.263,192.791 286.5,191.5C 287.167,191.5 287.5,191.167 287.5,190.5 Z"/></g>
<g><path style="opacity:0.051" fill="#b6a4aa" d="M 311.5,193.5 C 311.833,193.5 312.167,193.5 312.5,193.5C 312.233,195.965 311.566,198.299 310.5,200.5C 310.167,200.5 309.833,200.5 309.5,200.5C 309.767,198.035 310.434,195.701 311.5,193.5 Z"/></g>
<g><path style="opacity:0.004" fill="#fefffe" d="M 373.5,201.5 C 374.833,202.167 374.833,202.167 373.5,201.5 Z"/></g>
<g><path style="opacity:0.137" fill="#bdb7b7" d="M 309.5,201.5 C 309.833,201.5 310.167,201.5 310.5,201.5C 310.435,204.428 309.768,207.095 308.5,209.5C 308.5,208.833 308.167,208.5 307.5,208.5C 307.5,207.167 307.5,205.833 307.5,204.5C 308.401,203.71 309.068,202.71 309.5,201.5 Z"/></g>
<g><path style="opacity:1" fill="#262223" d="M 282.5,196.5 C 283.79,198.435 285.123,200.435 286.5,202.5C 285.515,204.098 285.349,205.765 286,207.5C 288.37,205.457 290.703,203.457 293,201.5C 294.979,203.395 296.979,205.395 299,207.5C 299.333,205.833 299.667,204.167 300,202.5C 300.333,203.167 300.667,203.833 301,204.5C 302,203.167 303,201.833 304,200.5C 305.627,201.532 306.793,202.866 307.5,204.5C 307.5,205.833 307.5,207.167 307.5,208.5C 307.5,209.167 307.5,209.833 307.5,210.5C 306.596,211.209 306.263,212.209 306.5,213.5C 305.596,214.209 305.263,215.209 305.5,216.5C 305.5,217.167 305.5,217.833 305.5,218.5C 304.833,220.167 304.167,221.833 303.5,223.5C 302.566,224.568 302.232,225.901 302.5,227.5C 302.5,228.833 302.5,230.167 302.5,231.5C 301.129,233.936 300.129,236.603 299.5,239.5C 298.262,241.214 297.595,243.214 297.5,245.5C 297.5,246.167 297.5,246.833 297.5,247.5C 296.833,248.167 296.167,248.833 295.5,249.5C 294.596,250.209 294.263,251.209 294.5,252.5C 292.063,251.613 289.73,250.78 287.5,250C 287.018,251.008 286.852,252.175 287,253.5C 285.307,254.184 283.807,255.184 282.5,256.5C 281.679,259.447 281.179,262.447 281,265.5C 278.688,267.464 276.188,267.797 273.5,266.5C 275.423,265.692 277.423,265.192 279.5,265C 276.242,264.788 273.076,264.288 270,263.5C 269,264.167 268,264.833 267,265.5C 266.809,263.292 266.309,261.292 265.5,259.5C 265.5,258.167 265.5,256.833 265.5,255.5C 266.989,250.383 267.989,245.049 268.5,239.5C 269.222,239.082 269.722,238.416 270,237.5C 270.757,239.315 271.59,240.981 272.5,242.5C 273.765,244.791 275.098,247.125 276.5,249.5C 276.783,250.289 277.283,250.956 278,251.5C 278.765,249.934 278.598,248.601 277.5,247.5C 277.5,247.167 277.5,246.833 277.5,246.5C 277.198,243.627 276.531,240.961 275.5,238.5C 273.906,230.431 274.573,222.431 277.5,214.5C 278.117,214.389 278.617,214.056 279,213.5C 279.278,214.416 279.778,215.082 280.5,215.5C 280.635,218.372 281.969,219.872 284.5,220C 283.809,218.933 283.309,217.766 283,216.5C 282.5,209.842 282.334,203.175 282.5,196.5 Z"/></g>
<g><path style="opacity:1" fill="#292425" d="M 338.5,173.5 C 338.833,173.5 339.167,173.5 339.5,173.5C 339.461,174.583 339.127,175.583 338.5,176.5C 340.147,178.934 341.48,178.934 342.5,176.5C 340.743,184.014 338.41,191.348 335.5,198.5C 336.479,197.235 337.479,195.901 338.5,194.5C 339.183,199.752 338.183,204.752 335.5,209.5C 334.466,210.687 333.133,211.52 331.5,212C 332.605,214.12 332.605,216.287 331.5,218.5C 329.942,223.284 327.609,227.618 324.5,231.5C 322.554,232.254 321.721,233.588 322,235.5C 323.518,234.837 324.685,233.837 325.5,232.5C 330.552,227.403 334.885,221.737 338.5,215.5C 339.231,217.401 339.231,219.401 338.5,221.5C 336.926,223.102 336.259,225.102 336.5,227.5C 333.049,239.402 327.716,250.402 320.5,260.5C 319.833,260.833 319.167,261.167 318.5,261.5C 318.206,257.292 316.54,256.625 313.5,259.5C 312.167,258.167 310.833,258.167 309.5,259.5C 308.252,258.96 307.085,258.293 306,257.5C 305.667,257.833 305.333,258.167 305,258.5C 303.711,253.216 302.378,253.216 301,258.5C 299.905,257.307 299.072,255.973 298.5,254.5C 299.825,246.85 301.158,239.183 302.5,231.5C 303.167,231.5 303.5,231.167 303.5,230.5C 304.434,229.432 304.768,228.099 304.5,226.5C 305.265,223.904 305.599,221.237 305.5,218.5C 306.338,218.158 306.672,217.492 306.5,216.5C 307.338,216.158 307.672,215.492 307.5,214.5C 307.5,213.167 307.5,211.833 307.5,210.5C 308.167,210.5 308.5,210.167 308.5,209.5C 309.768,207.095 310.435,204.428 310.5,201.5C 310.5,201.167 310.5,200.833 310.5,200.5C 311.566,198.299 312.233,195.965 312.5,193.5C 313.771,195.109 314.771,196.942 315.5,199C 316.784,199.684 317.951,199.517 319,198.5C 319.388,199.428 320.055,200.095 321,200.5C 323.621,199.586 326.121,198.419 328.5,197C 327.594,195.301 327.261,193.467 327.5,191.5C 328.675,191.719 329.675,191.386 330.5,190.5C 326.983,189.366 323.65,188.7 320.5,188.5C 324.311,187.355 328.311,187.188 332.5,188C 334.329,188.273 335.829,189.107 337,190.5C 336.911,187.294 335.911,184.294 334,181.5C 333.465,183.271 332.631,183.604 331.5,182.5C 332.33,180.865 332.497,179.198 332,177.5C 333.145,178.684 334.312,178.684 335.5,177.5C 336.167,177.5 336.5,177.167 336.5,176.5C 337.338,176.158 337.672,175.492 337.5,174.5C 338.167,174.5 338.5,174.167 338.5,173.5 Z M 335.5,198.5 C 335.068,199.71 334.401,200.71 333.5,201.5C 333.285,199.821 333.952,198.821 335.5,198.5 Z"/></g>
<g><path style="opacity:0.153" fill="#a4a1a2" d="M 331.5,203.5 C 331.716,205.681 330.883,207.347 329,208.5C 328.751,206.332 329.584,204.665 331.5,203.5 Z"/></g>
<g><path style="opacity:0.864" fill="#403b3d" d="M 428.5,182.5 C 434.333,204.999 435,227.666 430.5,250.5C 429.132,252.564 428.132,254.898 427.5,257.5C 426.571,256.311 426.238,254.978 426.5,253.5C 427.913,250.781 428.58,247.781 428.5,244.5C 429.1,234.828 429.767,225.162 430.5,215.5C 430.624,209.931 429.957,204.598 428.5,199.5C 427.179,193.552 426.179,187.552 425.5,181.5C 425.369,180.624 425.702,179.957 426.5,179.5C 427.176,180.602 427.842,181.602 428.5,182.5 Z"/></g>
<g><path style="opacity:0.304" fill="#969293" d="M 428.5,199.5 C 429.957,204.598 430.624,209.931 430.5,215.5C 429.194,210.384 428.527,205.051 428.5,199.5 Z"/></g>
<g><path style="opacity:0.91" fill="#706d6d" d="M 335.5,209.5 C 334.611,212.77 333.277,215.77 331.5,218.5C 332.605,216.287 332.605,214.12 331.5,212C 333.133,211.52 334.466,210.687 335.5,209.5 Z"/></g>
<g><path style="opacity:0.004" fill="#fefffe" d="M 50.5,213.5 C 51.8333,214.167 51.8333,214.167 50.5,213.5 Z"/></g>
<g><path style="opacity:0.125" fill="#c0bec0" d="M 280.5,215.5 C 279.778,215.082 279.278,214.416 279,213.5C 278.617,214.056 278.117,214.389 277.5,214.5C 279.314,210.357 280.314,210.69 280.5,215.5 Z"/></g>
<g><path style="opacity:0.004" fill="#fefffe" d="M 110.5,215.5 C 111.833,216.167 111.833,216.167 110.5,215.5 Z"/></g>
<g><path style="opacity:0.208" fill="#bfb7b7" d="M 306.5,213.5 C 306.5,214.167 306.833,214.5 307.5,214.5C 307.672,215.492 307.338,216.158 306.5,216.5C 306.167,216.5 305.833,216.5 305.5,216.5C 305.263,215.209 305.596,214.209 306.5,213.5 Z"/></g>
<g><path style="opacity:0.004" fill="#fefffe" d="M 222.5,216.5 C 223.833,217.167 223.833,217.167 222.5,216.5 Z"/></g>
<g><path style="opacity:0.004" fill="#fefffe" d="M 215.5,218.5 C 216.833,219.167 216.833,219.167 215.5,218.5 Z"/></g>
<g><path style="opacity:0.259" fill="#b2adb2" d="M 338.5,221.5 C 338.405,223.786 337.738,225.786 336.5,227.5C 336.259,225.102 336.926,223.102 338.5,221.5 Z"/></g>
<g><path style="opacity:0.027" fill="#c2bebf" d="M 303.5,223.5 C 303.263,224.791 303.596,225.791 304.5,226.5C 304.768,228.099 304.434,229.432 303.5,230.5C 303.737,229.209 303.404,228.209 302.5,227.5C 302.232,225.901 302.566,224.568 303.5,223.5 Z"/></g>
<g><path style="opacity:0.004" fill="#fefffe" d="M 111.5,233.5 C 112.833,234.167 112.833,234.167 111.5,233.5 Z"/></g>
<g><path style="opacity:0.035" fill="#c5c1c1" d="M 324.5,231.5 C 324.5,232.167 324.833,232.5 325.5,232.5C 324.685,233.837 323.518,234.837 322,235.5C 321.721,233.588 322.554,232.254 324.5,231.5 Z"/></g>
<g><path style="opacity:0.004" fill="#fefffe" d="M 207.5,235.5 C 208.833,236.167 208.833,236.167 207.5,235.5 Z"/></g>
<g><path style="opacity:0.551" fill="#707070" d="M 272.5,242.5 C 271.59,240.981 270.757,239.315 270,237.5C 269.722,238.416 269.222,239.082 268.5,239.5C 268.608,237.217 269.441,235.217 271,233.5C 271.696,236.478 272.196,239.478 272.5,242.5 Z"/></g>
<g><path style="opacity:0.373" fill="#989798" d="M 122.5,237.5 C 123.581,240.627 124.247,243.96 124.5,247.5C 122.825,244.493 122.159,241.16 122.5,237.5 Z"/></g>
<g><path style="opacity:0.129" fill="#afaaab" d="M 299.5,239.5 C 299.741,241.898 299.074,243.898 297.5,245.5C 297.595,243.214 298.262,241.214 299.5,239.5 Z"/></g>
<g><path style="opacity:0.196" fill="#a5a4a7" d="M 275.5,238.5 C 276.531,240.961 277.198,243.627 277.5,246.5C 275.777,244.22 275.111,241.553 275.5,238.5 Z"/></g>
<g><path style="opacity:0.445" fill="#848283" d="M 119.5,238.5 C 121.011,241.544 121.678,244.878 121.5,248.5C 120.215,245.411 119.549,242.078 119.5,238.5 Z"/></g>
<g><path style="opacity:0.941" fill="#444243" d="M 122.5,203.5 C 122.5,214.833 122.5,226.167 122.5,237.5C 122.159,241.16 122.825,244.493 124.5,247.5C 124.5,248.5 124.5,249.5 124.5,250.5C 124.41,253.152 125.076,255.485 126.5,257.5C 127.404,258.209 127.737,259.209 127.5,260.5C 126.5,261.5 125.5,262.5 124.5,263.5C 122.739,258.769 121.739,253.769 121.5,248.5C 121.678,244.878 121.011,241.544 119.5,238.5C 118.167,226.167 118.167,213.833 119.5,201.5C 121.598,200.086 122.598,200.752 122.5,203.5 Z"/></g>
<g><path style="opacity:0.108" fill="#bebbbe" d="M 277.5,247.5 C 278.598,248.601 278.765,249.934 278,251.5C 277.283,250.956 276.783,250.289 276.5,249.5C 277.338,249.158 277.672,248.492 277.5,247.5 Z"/></g>
<g><path style="opacity:0.004" fill="#fefffe" d="M 402.5,248.5 C 403.833,249.167 403.833,249.167 402.5,248.5 Z"/></g>
<g><path style="opacity:0.298" fill="#9d9d9d" d="M 297.5,247.5 C 297.405,249.786 296.738,251.786 295.5,253.5C 295.5,252.167 295.5,250.833 295.5,249.5C 296.167,248.833 296.833,248.167 297.5,247.5 Z"/></g>
<g><path style="opacity:0.165" fill="#a6a4a5" d="M 268.5,239.5 C 267.989,245.049 266.989,250.383 265.5,255.5C 265.496,249.858 266.496,244.525 268.5,239.5 Z"/></g>
<g><path style="opacity:0.231" fill="#999696" d="M 428.5,244.5 C 428.58,247.781 427.913,250.781 426.5,253.5C 426.42,250.219 427.087,247.219 428.5,244.5 Z"/></g>
<g><path style="opacity:0.237" fill="#9c9799" d="M 124.5,250.5 C 125.924,252.515 126.59,254.848 126.5,257.5C 125.076,255.485 124.41,253.152 124.5,250.5 Z"/></g>
<g><path style="opacity:1" fill="#312123" d="M 298.5,254.5 C 299.072,255.973 299.905,257.307 301,258.5C 302.378,253.216 303.711,253.216 305,258.5C 305.333,258.167 305.667,257.833 306,257.5C 307.085,258.293 308.252,258.96 309.5,259.5C 310.833,258.167 312.167,258.167 313.5,259.5C 316.54,256.625 318.206,257.292 318.5,261.5C 319.919,261.639 321.252,262.139 322.5,263C 319.589,263.698 318.923,265.198 320.5,267.5C 318.393,269.727 316.06,271.727 313.5,273.5C 312.833,273.833 312.167,274.167 311.5,274.5C 310.407,272.444 308.574,271.444 306,271.5C 304.106,271.58 302.273,271.913 300.5,272.5C 299.909,275.64 299.076,278.64 298,281.5C 298.203,277.23 297.036,273.563 294.5,270.5C 294.5,270.167 294.5,269.833 294.5,269.5C 295.924,267.485 296.59,265.152 296.5,262.5C 296.111,259.447 296.777,256.78 298.5,254.5 Z"/></g>
<g><path style="opacity:0.98" fill="#6c6265" d="M 320.5,267.5 C 318.923,265.198 319.589,263.698 322.5,263C 321.252,262.139 319.919,261.639 318.5,261.5C 319.167,261.167 319.833,260.833 320.5,260.5C 322.466,259.559 324.466,258.559 326.5,257.5C 326.833,257.833 327.167,258.167 327.5,258.5C 325.494,261.829 323.161,264.829 320.5,267.5 Z"/></g>
<g><path style="opacity:0.067" fill="#c2b8b8" d="M 425.5,258.5 C 425.405,260.786 424.738,262.786 423.5,264.5C 423.259,262.102 423.926,260.102 425.5,258.5 Z"/></g>
<g><path style="opacity:0.004" fill="#fefffe" d="M 395.5,266.5 C 396.833,267.167 396.833,267.167 395.5,266.5 Z"/></g>
<g><path style="opacity:0.11" fill="#c0b7b8" d="M 292.5,266.5 C 292.88,268.698 292.213,270.365 290.5,271.5C 290.796,269.597 291.463,267.93 292.5,266.5 Z"/></g>
<g><path style="opacity:0.206" fill="#a1959b" d="M 296.5,262.5 C 296.59,265.152 295.924,267.485 294.5,269.5C 294.41,266.848 295.076,264.515 296.5,262.5 Z"/></g>
<g><path style="opacity:0.129" fill="#aea7a9" d="M 423.5,266.5 C 423.34,268.153 422.674,269.486 421.5,270.5C 421.229,268.62 421.896,267.287 423.5,266.5 Z"/></g>
<g><path style="opacity:0.004" fill="#fefffe" d="M 10.5,270.5 C 11.8333,271.167 11.8333,271.167 10.5,270.5 Z"/></g>
<g><path style="opacity:0.867" fill="#484445" d="M 127.5,260.5 C 129.554,267.605 131.888,274.605 134.5,281.5C 134.179,283.048 133.179,283.715 131.5,283.5C 128.605,277.041 126.272,270.374 124.5,263.5C 125.5,262.5 126.5,261.5 127.5,260.5 Z"/></g>
<g><path style="opacity:0.278" fill="#a5a3a0" d="M 321.5,273.5 C 321.672,272.508 321.338,271.842 320.5,271.5C 321.14,269.668 322.14,269.335 323.5,270.5C 323.058,271.739 322.391,272.739 321.5,273.5 Z"/></g>
<g><path style="opacity:1" fill="#2b2627" d="M 295.5,249.5 C 295.5,250.833 295.5,252.167 295.5,253.5C 294.879,257.942 293.879,262.275 292.5,266.5C 291.463,267.93 290.796,269.597 290.5,271.5C 288.686,281.167 286.352,290.333 283.5,299C 284.793,299.49 286.127,299.657 287.5,299.5C 288.72,301.284 288.72,302.95 287.5,304.5C 286.5,304.5 285.5,304.5 284.5,304.5C 284.5,305.5 284.5,306.5 284.5,307.5C 283.432,308.434 282.099,308.768 280.5,308.5C 279.069,309.78 278.402,311.447 278.5,313.5C 278.076,317.012 277.076,320.345 275.5,323.5C 274.251,324.778 272.751,325.778 271,326.5C 270.601,326.272 270.435,325.938 270.5,325.5C 271.194,319.362 272.528,313.362 274.5,307.5C 271.721,306.327 271.054,304.493 272.5,302C 270.893,300.951 270.227,299.451 270.5,297.5C 271.675,297.719 272.675,297.386 273.5,296.5C 273.376,295.893 273.043,295.56 272.5,295.5C 272.5,294.5 272.5,293.5 272.5,292.5C 272.741,290.102 272.074,288.102 270.5,286.5C 267.867,277.704 266.2,268.704 265.5,259.5C 266.309,261.292 266.809,263.292 267,265.5C 268,264.833 269,264.167 270,263.5C 273.076,264.288 276.242,264.788 279.5,265C 277.423,265.192 275.423,265.692 273.5,266.5C 276.188,267.797 278.688,267.464 281,265.5C 281.179,262.447 281.679,259.447 282.5,256.5C 283.807,255.184 285.307,254.184 287,253.5C 286.852,252.175 287.018,251.008 287.5,250C 289.73,250.78 292.063,251.613 294.5,252.5C 294.263,251.209 294.596,250.209 295.5,249.5 Z"/></g>
<g><path style="opacity:0.051" fill="#cecece" d="M 293.5,275.5 C 293.405,277.786 292.738,279.786 291.5,281.5C 291.259,279.102 291.926,277.102 293.5,275.5 Z"/></g>
<g><path style="opacity:0.004" fill="#fefffe" d="M 351.5,279.5 C 352.833,280.167 352.833,280.167 351.5,279.5 Z"/></g>
<g><path style="opacity:1" fill="#252122" d="M 294.5,270.5 C 297.036,273.563 298.203,277.23 298,281.5C 299.076,278.64 299.909,275.64 300.5,272.5C 302.273,271.913 304.106,271.58 306,271.5C 308.574,271.444 310.407,272.444 311.5,274.5C 310.227,275.077 310.227,275.743 311.5,276.5C 312.522,276.145 313.189,275.478 313.5,274.5C 315.722,273.312 318.055,272.312 320.5,271.5C 321.338,271.842 321.672,272.508 321.5,273.5C 318.379,278.437 314.379,282.437 309.5,285.5C 308.603,286.598 307.77,286.598 307,285.5C 305.986,287.621 303.986,289.288 301,290.5C 300.586,290.043 300.086,289.709 299.5,289.5C 298.638,290.766 297.971,292.099 297.5,293.5C 295.955,294.64 294.288,295.64 292.5,296.5C 291.5,296.5 290.5,296.5 289.5,296.5C 289.5,295.167 289.5,293.833 289.5,292.5C 289.5,291.833 289.5,291.167 289.5,290.5C 290.738,288.786 291.405,286.786 291.5,284.5C 291.5,283.5 291.5,282.5 291.5,281.5C 292.738,279.786 293.405,277.786 293.5,275.5C 293.366,273.708 293.699,272.042 294.5,270.5 Z"/></g>
<g><path style="opacity:0.314" fill="#b5b1b2" d="M 313.5,273.5 C 313.5,273.833 313.5,274.167 313.5,274.5C 313.189,275.478 312.522,276.145 311.5,276.5C 310.227,275.743 310.227,275.077 311.5,274.5C 312.167,274.167 312.833,273.833 313.5,273.5 Z"/></g>
<g><path style="opacity:0.553" fill="#6d6d6d" d="M 134.5,281.5 C 135.674,282.514 136.34,283.847 136.5,285.5C 134.804,283.871 133.804,284.204 133.5,286.5C 132.599,285.71 131.932,284.71 131.5,283.5C 133.179,283.715 134.179,283.048 134.5,281.5 Z"/></g>
<g><path style="opacity:0.944" fill="#1e1e1e" d="M 136.5,285.5 C 136.5,285.833 136.5,286.167 136.5,286.5C 136.196,288.796 135.196,289.129 133.5,287.5C 133.5,287.167 133.5,286.833 133.5,286.5C 133.804,284.204 134.804,283.871 136.5,285.5 Z"/></g>
<g><path style="opacity:0.004" fill="#fefffe" d="M 314.5,285.5 C 315.833,286.167 315.833,286.167 314.5,285.5 Z"/></g>
<g><path style="opacity:0.078" fill="#bfbfbf" d="M 291.5,284.5 C 291.405,286.786 290.738,288.786 289.5,290.5C 289.259,288.102 289.926,286.102 291.5,284.5 Z"/></g>
<g><path style="opacity:0.945" fill="#5c595a" d="M 309.5,285.5 C 306.249,289.137 302.249,291.804 297.5,293.5C 297.971,292.099 298.638,290.766 299.5,289.5C 300.086,289.709 300.586,290.043 301,290.5C 303.986,289.288 305.986,287.621 307,285.5C 307.77,286.598 308.603,286.598 309.5,285.5 Z"/></g>
<g><path style="opacity:0.843" fill="#6e6d6e" d="M 136.5,286.5 C 137.401,287.29 138.068,288.29 138.5,289.5C 137.503,289.47 136.836,289.97 136.5,291C 136.989,292.138 137.322,293.305 137.5,294.5C 135.801,292.434 134.468,290.1 133.5,287.5C 135.196,289.129 136.196,288.796 136.5,286.5 Z"/></g>
<g><path style="opacity:0.373" fill="#8c8889" d="M 270.5,286.5 C 272.074,288.102 272.741,290.102 272.5,292.5C 271.262,290.786 270.595,288.786 270.5,286.5 Z"/></g>
<g><path style="opacity:0.004" fill="#fefffe" d="M 151.5,290.5 C 152.833,291.167 152.833,291.167 151.5,290.5 Z"/></g>
<g><path style="opacity:0.145" fill="#b5b5b5" d="M 417.5,289.5 C 417.573,291.027 416.906,292.027 415.5,292.5C 415.427,290.973 416.094,289.973 417.5,289.5 Z"/></g>
<g><path style="opacity:0.329" fill="#a8a3a4" d="M 272.5,295.5 C 273.043,295.56 273.376,295.893 273.5,296.5C 272.675,297.386 271.675,297.719 270.5,297.5C 271.167,296.833 271.833,296.167 272.5,295.5 Z"/></g>
<g><path style="opacity:0.753" fill="#827f82" d="M 289.5,292.5 C 289.5,293.833 289.5,295.167 289.5,296.5C 290.5,296.5 291.5,296.5 292.5,296.5C 291.101,297.89 289.434,298.89 287.5,299.5C 287.721,296.933 288.388,294.599 289.5,292.5 Z"/></g>
<g><path style="opacity:0.102" fill="#b2b2b2" d="M 183.5,295.5 C 183.573,297.027 182.906,298.027 181.5,298.5C 181.427,296.973 182.094,295.973 183.5,295.5 Z"/></g>
<g><path style="opacity:0.004" fill="#fefffe" d="M 87.5,299.5 C 88.8333,300.167 88.8333,300.167 87.5,299.5 Z"/></g>
<g><path style="opacity:0.912" fill="#393738" d="M 138.5,289.5 C 140.88,293.633 142.88,297.966 144.5,302.5C 143.178,302.67 142.011,302.337 141,301.5C 139.295,299.423 138.128,297.09 137.5,294.5C 137.322,293.305 136.989,292.138 136.5,291C 136.836,289.97 137.503,289.47 138.5,289.5 Z"/></g>
<g><path style="opacity:0.004" fill="#fefffe" d="M 348.5,300.5 C 349.833,301.167 349.833,301.167 348.5,300.5 Z"/></g>
<g><path style="opacity:0.082" fill="#d5d1d1" d="M 287.5,304.5 C 286.5,305.5 285.5,306.5 284.5,307.5C 284.5,306.5 284.5,305.5 284.5,304.5C 285.5,304.5 286.5,304.5 287.5,304.5 Z"/></g>
<g><path style="opacity:0.227" fill="#a2a2a2" d="M 280.5,308.5 C 280.598,310.553 279.931,312.22 278.5,313.5C 278.402,311.447 279.069,309.78 280.5,308.5 Z"/></g>
<g><path style="opacity:0.004" fill="#fefffe" d="M 199.5,318.5 C 200.833,319.167 200.833,319.167 199.5,318.5 Z"/></g>
<g><path style="opacity:0.004" fill="#fefffe" d="M 402.5,321.5 C 403.833,322.167 403.833,322.167 402.5,321.5 Z"/></g>
<g><path style="opacity:0.004" fill="#fefffe" d="M 326.5,324.5 C 327.833,325.167 327.833,325.167 326.5,324.5 Z"/></g>
<g><path style="opacity:0.945" fill="#4d4b4c" d="M 430.5,250.5 C 428.887,259.034 426.72,267.368 424,275.5C 422.058,280.377 419.892,285.044 417.5,289.5C 416.094,289.973 415.427,290.973 415.5,292.5C 395.073,332.231 363.407,358.564 320.5,371.5C 323.307,368.956 322.64,367.956 318.5,368.5C 368.367,352.303 402.7,319.636 421.5,270.5C 422.674,269.486 423.34,268.153 423.5,266.5C 423.5,265.833 423.5,265.167 423.5,264.5C 424.738,262.786 425.405,260.786 425.5,258.5C 425.216,256.585 425.549,254.919 426.5,253.5C 426.238,254.978 426.571,256.311 427.5,257.5C 428.132,254.898 429.132,252.564 430.5,250.5 Z"/></g>
<g><path style="opacity:1" fill="#5c5b5c" d="M 275.5,323.5 C 274.613,327.419 273.279,331.085 271.5,334.5C 272.052,332.669 272.052,331.003 271.5,329.5C 270.914,329.291 270.414,328.957 270,328.5C 269.79,330.058 269.29,331.391 268.5,332.5C 268.171,329.772 268.837,327.438 270.5,325.5C 270.435,325.938 270.601,326.272 271,326.5C 272.751,325.778 274.251,324.778 275.5,323.5 Z"/></g>
<g><path style="opacity:0.931" fill="#222021" d="M 271.5,334.5 C 271.443,335.609 271.11,336.609 270.5,337.5C 268.787,336.365 268.12,334.698 268.5,332.5C 269.29,331.391 269.79,330.058 270,328.5C 270.414,328.957 270.914,329.291 271.5,329.5C 272.052,331.003 272.052,332.669 271.5,334.5 Z"/></g>
<g><path style="opacity:1" fill="#373335" d="M 212.5,301.5 C 215.175,309.51 216.841,317.843 217.5,326.5C 217.334,332.509 217.501,338.509 218,344.5C 218.717,343.956 219.217,343.289 219.5,342.5C 220.449,341.848 221.615,341.514 223,341.5C 225.008,341.307 226.508,341.974 227.5,343.5C 227.657,344.873 227.49,346.207 227,347.5C 226.583,346.244 225.75,345.577 224.5,345.5C 223.749,344.427 222.749,344.26 221.5,345C 220.934,345.995 220.267,346.828 219.5,347.5C 218.167,347.5 216.833,347.5 215.5,347.5C 215.825,339.648 215.492,331.982 214.5,324.5C 212.714,318.047 211.381,311.38 210.5,304.5C 210.34,302.801 210.506,301.134 211,299.5C 211.278,300.416 211.778,301.082 212.5,301.5 Z"/></g>
<g><path style="opacity:0.784" fill="#656363" d="M 268.5,332.5 C 268.12,334.698 268.787,336.365 270.5,337.5C 268.887,341.677 267.887,346.011 267.5,350.5C 262.968,350.818 258.634,350.485 254.5,349.5C 258.5,349.5 262.5,349.5 266.5,349.5C 266.768,347.901 266.434,346.568 265.5,345.5C 266.34,341.015 267.34,336.681 268.5,332.5 Z"/></g>
<g><path style="opacity:0.05" fill="#e4e4e4" d="M 217.5,326.5 C 218.167,331.833 218.833,337.167 219.5,342.5C 219.217,343.289 218.717,343.956 218,344.5C 217.501,338.509 217.334,332.509 217.5,326.5 Z"/></g>
<g><path style="opacity:0.125" fill="#bebdbe" d="M 180.5,341.5 C 182.027,341.427 183.027,342.094 183.5,343.5C 181.973,343.573 180.973,342.906 180.5,341.5 Z"/></g>
<g><path style="opacity:0.004" fill="#fefffe" d="M 41.5,343.5 C 42.8333,344.167 42.8333,344.167 41.5,343.5 Z"/></g>
<g><path style="opacity:0.93" fill="#2b2929" d="M 231.5,344.5 C 233.167,344.5 234.833,344.5 236.5,344.5C 237.968,345.779 238.635,347.446 238.5,349.5C 236.938,349.267 235.605,348.6 234.5,347.5C 233.694,346.272 232.694,345.272 231.5,344.5 Z"/></g>
<g><path style="opacity:0.988" fill="#6f6e6f" d="M 245.5,343.5 C 239.426,343.674 239.093,344.674 244.5,346.5C 241.642,346.028 239.642,347.028 238.5,349.5C 238.635,347.446 237.968,345.779 236.5,344.5C 238.307,343.385 240.307,342.719 242.5,342.5C 243.726,342.52 244.726,342.853 245.5,343.5 Z"/></g>
<g><path style="opacity:0.984" fill="#6b696a" d="M 227.5,343.5 C 228.222,343.918 228.722,344.584 229,345.5C 229.671,344.748 230.504,344.414 231.5,344.5C 232.694,345.272 233.694,346.272 234.5,347.5C 233.761,347.369 233.094,347.536 232.5,348C 231.915,349.302 231.249,350.469 230.5,351.5C 229.614,352.776 228.614,352.776 227.5,351.5C 226.487,349.473 225.487,347.473 224.5,345.5C 225.75,345.577 226.583,346.244 227,347.5C 227.49,346.207 227.657,344.873 227.5,343.5 Z"/></g>
<g><path style="opacity:0.906" fill="#3c3a3b" d="M 245.5,343.5 C 250.957,345.568 256.624,346.902 262.5,347.5C 264.038,347.547 265.038,346.88 265.5,345.5C 266.434,346.568 266.768,347.901 266.5,349.5C 262.5,349.5 258.5,349.5 254.5,349.5C 250.793,349.396 247.46,348.396 244.5,346.5C 239.093,344.674 239.426,343.674 245.5,343.5 Z"/></g>
<g><path style="opacity:1" fill="#514d4e" d="M 214.5,324.5 C 215.492,331.982 215.825,339.648 215.5,347.5C 216.833,347.5 218.167,347.5 219.5,347.5C 218.828,350.343 217.495,352.843 215.5,355C 213.763,355.612 212.763,354.946 212.5,353C 214.337,343.611 215.003,334.111 214.5,324.5 Z"/></g>
<g><path style="opacity:1" fill="#1b191a" d="M 230.5,351.5 C 226.998,350.166 226.832,348.499 230,346.5C 230.494,348.134 230.66,349.801 230.5,351.5 Z"/></g>
<g><path style="opacity:0.004" fill="#fefffe" d="M 462.5,347.5 C 463.833,348.167 463.833,348.167 462.5,347.5 Z"/></g>
<g><path style="opacity:0.004" fill="#fefffe" d="M 72.5,353.5 C 73.8333,354.167 73.8333,354.167 72.5,353.5 Z"/></g>
<g><path style="opacity:0.004" fill="#fefffe" d="M 145.5,357.5 C 146.833,358.167 146.833,358.167 145.5,357.5 Z"/></g>
<g><path style="opacity:0.545" fill="#4b4849" d="M 212.5,301.5 C 211.778,301.082 211.278,300.416 211,299.5C 210.506,301.134 210.34,302.801 210.5,304.5C 208.828,301.802 207.661,298.802 207,295.5C 203.719,286.991 198.386,285.324 191,290.5C 181.441,303.617 176.441,318.283 176,334.5C 177.012,337.202 178.512,339.535 180.5,341.5C 180.973,342.906 181.973,343.573 183.5,343.5C 201.074,356.022 220.407,365.022 241.5,370.5C 240.391,371.29 239.058,371.79 237.5,372C 238.416,372.278 239.082,372.778 239.5,373.5C 214.559,368.037 192.726,356.704 174,339.5C 171.576,334.43 170.909,329.097 172,323.5C 174.489,314.859 177.656,306.525 181.5,298.5C 182.906,298.027 183.573,297.027 183.5,295.5C 186.482,286.847 192.482,283.014 201.5,284C 207.801,288.086 211.467,293.919 212.5,301.5 Z"/></g>
<g><path style="opacity:0.004" fill="#fefffe" d="M 415.5,360.5 C 416.833,361.167 416.833,361.167 415.5,360.5 Z"/></g>
<g><path style="opacity:0.161" fill="#bab9ba" d="M 318.5,371.5 C 316.898,373.074 314.898,373.741 312.5,373.5C 314.214,372.262 316.214,371.595 318.5,371.5 Z"/></g>
<g><path style="opacity:0.913" fill="#444243" d="M 318.5,368.5 C 322.64,367.956 323.307,368.956 320.5,371.5C 319.833,371.5 319.167,371.5 318.5,371.5C 316.214,371.595 314.214,372.262 312.5,373.5C 311.5,373.5 310.5,373.5 309.5,373.5C 306.572,373.565 303.905,374.232 301.5,375.5C 280.828,378.597 260.161,377.93 239.5,373.5C 239.082,372.778 238.416,372.278 237.5,372C 239.058,371.79 240.391,371.29 241.5,370.5C 241.833,370.5 242.167,370.5 242.5,370.5C 244.515,371.924 246.848,372.59 249.5,372.5C 258.351,372.877 267.185,373.544 276,374.5C 290.387,373.785 304.553,371.785 318.5,368.5 Z"/></g>
<g><path style="opacity:0.349" fill="#9e9e9e" d="M 242.5,370.5 C 245.152,370.41 247.485,371.076 249.5,372.5C 246.848,372.59 244.515,371.924 242.5,370.5 Z"/></g>
<g><path style="opacity:0.22" fill="#9d9c9d" d="M 309.5,373.5 C 307.162,375.04 304.495,375.706 301.5,375.5C 303.905,374.232 306.572,373.565 309.5,373.5 Z"/></g>
<g><path style="opacity:0.004" fill="#fefffe" d="M 141.5,378.5 C 142.833,379.167 142.833,379.167 141.5,378.5 Z"/></g>
<g><path style="opacity:0.004" fill="#fefffe" d="M 459.5,380.5 C 460.833,381.167 460.833,381.167 459.5,380.5 Z"/></g>
<g><path style="opacity:0.004" fill="#fefffe" d="M 102.5,392.5 C 103.833,393.167 103.833,393.167 102.5,392.5 Z"/></g>
<g><path style="opacity:0.004" fill="#fefffe" d="M 281.5,394.5 C 282.833,395.167 282.833,395.167 281.5,394.5 Z"/></g>
<g><path style="opacity:0.004" fill="#fefffe" d="M 51.5,403.5 C 52.8333,404.167 52.8333,404.167 51.5,403.5 Z"/></g>
<g><path style="opacity:0.004" fill="#fefffe" d="M 72.5,408.5 C 73.8333,409.167 73.8333,409.167 72.5,408.5 Z"/></g>
<g><path style="opacity:0.004" fill="#fefffe" d="M 13.5,420.5 C 14.8333,421.167 14.8333,421.167 13.5,420.5 Z"/></g>
<g><path style="opacity:0.004" fill="#fefffe" d="M 85.5,423.5 C 86.8333,424.167 86.8333,424.167 85.5,423.5 Z"/></g>
<g><path style="opacity:0.004" fill="#fefffe" d="M 516.5,425.5 C 517.833,426.167 517.833,426.167 516.5,425.5 Z"/></g>
<g><path style="opacity:0.004" fill="#fefffe" d="M 90.5,426.5 C 91.8333,427.167 91.8333,427.167 90.5,426.5 Z"/></g>
<g><path style="opacity:0.004" fill="#fefffe" d="M 230.5,426.5 C 231.833,427.167 231.833,427.167 230.5,426.5 Z"/></g>
<g><path style="opacity:0.004" fill="#fefffe" d="M 42.5,441.5 C 43.8333,442.167 43.8333,442.167 42.5,441.5 Z"/></g>
</svg>
